<svg xmlns="http://www.w3.org/2000/svg" viewBox="0 0 100 100" width="100%" height="100%">
  <rect x="6" y="6" width="88" height="88" rx="16" fill="#1e40af" />
  <!-- Open Book Icon -->
  <g fill="#ffffff" transform="translate(20, 24) scale(0.6)">
    <path d="M50 80 C35 70 15 70 0 80 L0 15 C15 5 35 5 50 15 Z" fill="#ffffff" opacity="0.95" />
    <path d="M50 80 C65 70 85 70 100 80 L100 15 C85 5 65 5 50 15 Z" fill="#ffffff" opacity="0.95" />
    <path d="M50 15 L50 80" stroke="#1e40af" stroke-width="3" stroke-linecap="round" />
    <!-- Book Lines -->
    <path d="M12 28 C24 22 36 22 44 26" stroke="#93c5fd" stroke-width="3" stroke-linecap="round" fill="none" />
    <path d="M12 42 C24 36 36 36 44 40" stroke="#93c5fd" stroke-width="3" stroke-linecap="round" fill="none" />
    <path d="M12 56 C24 50 36 50 44 54" stroke="#93c5fd" stroke-width="3" stroke-linecap="round" fill="none" />
    <path d="M88 28 C76 22 64 22 56 26" stroke="#93c5fd" stroke-width="3" stroke-linecap="round" fill="none" />
    <path d="M88 42 C76 36 64 36 56 40" stroke="#93c5fd" stroke-width="3" stroke-linecap="round" fill="none" />
    <path d="M88 56 C76 50 64 50 56 54" stroke="#93c5fd" stroke-width="3" stroke-linecap="round" fill="none" />
  </g>
</svg>
